            <svg width="750" height="143" viewBox="0 0 750 143" fill="none" xmlns="http://www.w3.org/2000/svg">
              <path d="M157.192 61.3049C157.192 85.5495 162.042 101.431 171.975 111.256C181.908 121.08 196.953 124.875 217.414 124.875H233.434C253.985 124.875 269.074 121.08 279.029 111.256C288.984 101.431 293.834 85.5495 293.834 61.3049V0.352104H275.215V61.3049C275.215 79.1114 272.278 90.9755 265.502 98.3847C258.724 105.797 248.132 108.722 232.901 108.722H218.126C202.895 108.722 192.258 105.797 185.435 98.385C178.616 90.9758 175.634 79.1118 175.634 61.3049V0.352104H157.192V61.3049Z" stroke="#595959" stroke-width="0.25" />
              <mask id="path-2-inside-1_166_2" fill="white">
                <path d="M76.1891 108.103C109.121 108.103 121.226 96.7104 121.226 62.5317C121.226 28.3531 109.121 16.9604 76.1891 16.9604H18.6911V108.103H76.1891ZM140.273 62.5317C140.273 109.349 120.87 124.836 77.0791 124.836H0V0.227478H77.0791C120.87 0.227478 140.273 15.7144 140.273 62.5317" />
              </mask>
              <path d="M18.6911 16.9604H18.4411V16.7104H18.6911V16.9604ZM18.6911 108.103V108.353H18.4411V108.103H18.6911ZM0 124.836V125.086H-0.25V124.836H0ZM0 0.227478H-0.25V-0.0225222H0V0.227478ZM76.1891 107.853C92.6387 107.853 103.811 105.005 110.881 97.9573C117.95 90.9098 120.976 79.604 120.976 62.5317H121.476C121.476 79.6382 118.45 91.118 111.234 98.3114C104.018 105.505 92.6713 108.353 76.1891 108.353V107.853ZM120.976 62.5317C120.976 45.4595 117.95 34.1537 110.881 27.1062C103.811 20.0586 92.6387 17.2104 76.1891 17.2104V16.7104C92.6713 16.7104 104.018 19.5586 111.234 26.7521C118.45 33.9455 121.476 45.4253 121.476 62.5317H120.976ZM76.1891 17.2104H18.6911V16.7104H76.1891V17.2104ZM18.9411 16.9604V108.103H18.4411V16.9604H18.9411ZM18.6911 107.853H76.1891V108.353H18.6911V107.853ZM140.523 62.5317C140.523 85.9663 135.669 101.628 125.269 111.422C114.874 121.213 98.9933 125.086 77.0791 125.086V124.586C98.9561 124.586 114.673 120.715 124.927 111.058C135.177 101.405 140.023 85.9145 140.023 62.5317H140.523ZM77.0791 125.086H0V124.586H77.0791V125.086ZM-0.25 124.836V0.227478H0.25V124.836H-0.25ZM0 -0.0225222H77.0791V0.477478H0V-0.0225222ZM77.0791 -0.0225222C98.9933 -0.0225222 114.874 3.85018 125.269 13.6411C135.669 23.4353 140.523 39.0971 140.523 62.5317H140.023C140.023 39.149 135.177 23.6587 124.927 14.0051C114.673 4.34822 98.9561 0.477478 77.0791 0.477478V-0.0225222Z" fill="#595959" mask="url(#path-2-inside-1_166_2)" />
              <path d="M328.488 25.4351L363.76 60.7073L376.343 48.1243L328.344 0.125H310.2V124.875H328.274V25.5235V25.2218L328.488 25.4351Z" stroke="#595959" stroke-width="0.25" />
              <path d="M426.478 99.5647L391.206 64.2926L378.623 76.8756L426.622 124.875H444.766V0.125H426.691V99.4763V99.7781L426.478 99.5647Z" stroke="#595959" stroke-width="0.25" />
              <path d="M598.153 63.9222C598.153 39.6776 593.304 23.7956 583.371 13.9712C573.438 4.14673 558.393 0.352223 537.932 0.352223H521.911C501.361 0.352223 486.272 4.14678 476.316 13.9713C466.361 23.7957 461.512 39.6776 461.511 63.9222V124.875H480.13V63.9222C480.131 46.1157 483.068 34.2518 489.843 26.8427C496.621 19.4302 507.214 16.506 522.445 16.506H537.22C552.451 16.506 563.088 19.4302 569.91 26.8424C576.73 34.2514 579.711 46.1153 579.711 63.9222V124.875H598.153V63.9222Z" stroke="#595959" stroke-width="0.25" />
              <path d="M614.6 123.745H614.601L614.6 123.753L614.527 124.875H632.593V26.8324V26.5307L632.807 26.744L730.937 124.875H749.085V0.125H730.847V98.0038V98.3056L730.634 98.0922L632.666 0.125H614.6V123.745Z" stroke="#595959" stroke-width="0.25" />
              <path d="M152.4 95.04H161.56V75.64L173.6 95.04H178.72L190.72 75.64V95.04H200.16V67.04H187.08L176.48 84.48L165.96 67.04H152.4V95.04ZM235.943 67.08H226.423V95H235.943V67.08ZM295.165 83.36C294.205 82.28 292.925 81.56 291.365 81.12C294.765 80 296.485 78 296.485 75.08V74.64C296.485 69.88 292.485 67.48 284.485 67.48H262.205V95H270.845V85.24H282.125C284.245 85.24 285.725 85.64 286.605 86.4C287.485 87.16 287.925 88.4 287.925 90.08V95H296.605V87.44C296.605 85.76 296.125 84.4 295.165 83.36ZM287.445 76.44C287.445 77.24 287.165 77.92 286.605 78.4C286.045 78.88 285.165 79.16 283.965 79.16H270.845V73.72H283.965C285.165 73.72 286.045 74 286.605 74.48C287.165 74.96 287.445 75.6 287.445 76.4V76.44ZM355.282 83.36C354.322 82.28 353.042 81.56 351.482 81.12C354.882 80 356.602 78 356.602 75.08V74.64C356.602 69.88 352.602 67.48 344.602 67.48H322.322V95H330.962V85.24H342.242C344.362 85.24 345.842 85.64 346.722 86.4C347.602 87.16 348.042 88.4 348.042 90.08V95H356.722V87.44C356.722 85.76 356.242 84.4 355.282 83.36ZM347.562 76.44C347.562 77.24 347.282 77.92 346.722 78.4C346.162 78.88 345.282 79.16 344.082 79.16H330.962V73.72H344.082C345.282 73.72 346.162 74 346.722 74.48C347.282 74.96 347.562 75.6 347.562 76.4V76.44ZM402.719 66.56C400.039 66.56 397.639 66.72 395.439 67.08C393.279 67.4 391.439 67.84 389.959 68.4C388.519 68.96 387.239 69.64 386.159 70.44C385.039 71.24 384.199 72.04 383.559 72.84C382.959 73.64 382.479 74.52 382.119 75.48C381.719 76.44 381.479 77.32 381.399 78.04C381.279 78.8 381.239 79.56 381.239 80.4V81.52C381.239 82.32 381.279 83.12 381.399 83.88C381.479 84.6 381.719 85.48 382.119 86.44C382.479 87.4 382.959 88.28 383.559 89.12C384.199 89.92 385.039 90.72 386.159 91.56C387.279 92.36 388.559 93.04 389.999 93.64C391.439 94.2 393.279 94.64 395.439 95C397.639 95.36 400.039 95.52 402.719 95.52H403.999C406.679 95.52 409.079 95.36 411.239 95C413.439 94.64 415.239 94.2 416.679 93.64C418.119 93.04 419.399 92.36 420.519 91.56C421.639 90.72 422.479 89.92 423.079 89.12C423.679 88.28 424.159 87.4 424.559 86.44C424.919 85.48 425.199 84.6 425.279 83.88C425.399 83.12 425.439 82.32 425.439 81.52V80.4C425.439 79.56 425.399 78.8 425.279 78.04C425.199 77.28 424.919 76.44 424.559 75.48C424.159 74.52 423.679 73.64 423.039 72.84C422.439 72.04 421.599 71.24 420.479 70.44C419.399 69.64 418.119 68.96 416.679 68.4C415.199 67.84 413.399 67.4 411.239 67.08C409.079 66.72 406.679 66.56 403.999 66.56H402.719ZM415.439 81.2C415.439 82.08 415.279 82.96 414.919 83.76C414.599 84.56 413.999 85.36 413.159 86.12C412.319 86.92 411.039 87.56 409.319 88C407.839 88.44 406.039 88.64 403.999 88.72C403.679 88.72 403.199 88.72 402.999 88.72C400.799 88.68 398.879 88.44 397.279 88C395.559 87.52 394.319 86.88 393.479 86.08C392.679 85.28 392.079 84.48 391.759 83.68C391.399 82.88 391.239 82 391.239 81.12V80.68C391.239 75.92 395.119 73.48 402.839 73.32C403.079 73.32 403.799 73.32 404.159 73.36C405.719 73.4 407.119 73.52 408.359 73.8C409.839 74.12 411.039 74.52 411.919 75C412.799 75.44 413.519 76.04 414.039 76.72C414.599 77.4 414.959 78.04 415.159 78.68C415.359 79.28 415.439 79.96 415.439 80.68V81.2ZM483.485 83.36C482.525 82.28 481.245 81.56 479.685 81.12C483.085 80 484.805 78 484.805 75.08V74.64C484.805 69.88 480.805 67.48 472.805 67.48H450.525V95H459.165V85.24H470.445C472.565 85.24 474.045 85.64 474.925 86.4C475.805 87.16 476.245 88.4 476.245 90.08V95H484.925V87.44C484.925 85.76 484.445 84.4 483.485 83.36ZM475.765 76.44C475.765 77.24 475.485 77.92 474.925 78.4C474.365 78.88 473.485 79.16 472.285 79.16H459.165V73.72H472.285C473.485 73.72 474.365 74 474.925 74.48C475.485 74.96 475.765 75.6 475.765 76.4V76.44ZM510.642 66.96V95H543.282V88.48H520.082V83.88H542.322V77.48H520.082V73.32H542.842V66.96H510.642ZM568.963 66.96V95H589.243C592.683 95 595.723 94.72 598.323 94.12C600.963 93.56 603.043 92.84 604.603 91.96C606.123 91.08 607.363 90 608.363 88.72C609.323 87.48 609.963 86.28 610.283 85.08C610.642 83.92 610.803 82.68 610.803 81.36V80.2C610.803 79.08 610.683 78.04 610.403 77.04C610.163 76.04 609.722 75.04 609.163 74C608.563 72.96 607.723 72.04 606.643 71.24C605.563 70.4 604.243 69.68 602.683 69C601.163 68.32 599.243 67.84 596.923 67.48C594.643 67.12 592.043 66.96 589.203 66.96H568.963ZM578.523 73.56H588.483C596.683 73.56 600.763 75.96 600.763 80.8V81C600.763 85.84 596.683 88.24 588.483 88.24H578.523V73.56Z" fill="white" />
              <path d="M177.96 40.784V52H186.072C187.448 52 188.664 51.888 189.704 51.648C190.76 51.424 191.592 51.136 192.216 50.784C192.824 50.432 193.32 50 193.72 49.488C194.104 48.992 194.36 48.512 194.488 48.032C194.632 47.568 194.696 47.072 194.696 46.544V46.08C194.696 45.632 194.648 45.216 194.536 44.816C194.44 44.416 194.264 44.016 194.04 43.6C193.8 43.184 193.464 42.816 193.032 42.496C192.6 42.16 192.072 41.872 191.448 41.6C190.84 41.328 190.072 41.136 189.144 40.992C188.232 40.848 187.192 40.784 186.056 40.784H177.96ZM181.784 43.424H185.768C189.048 43.424 190.68 44.384 190.68 46.32V46.4C190.68 48.336 189.048 49.296 185.768 49.296H181.784V43.424ZM215.334 40.928H209.654L203.718 51.984H207.462L208.502 49.968H216.486L217.526 51.984H221.286L215.334 40.928ZM209.798 47.472L211.894 43.408H213.094L215.206 47.472H209.798ZM235.252 52.016H239.108V43.472H244.372V40.816H230.004V43.472H235.252V52.016ZM254.085 40.784V52H267.141V49.392H257.861V47.552H266.757V44.992H257.861V43.328H266.965V40.784H254.085ZM284.133 52.208H285.253C286.437 52.208 287.477 52.144 288.357 51.984C289.237 51.84 289.925 51.664 290.437 51.424C290.949 51.2 291.349 50.912 291.653 50.576C291.957 50.224 292.165 49.888 292.261 49.568C292.357 49.248 292.405 48.88 292.405 48.464V48.256C292.405 47.12 291.909 46.304 290.885 45.776C289.877 45.248 288.245 44.96 285.957 44.928L284.805 44.912L283.909 44.896C283.125 44.88 282.517 44.832 282.085 44.736C281.653 44.624 281.381 44.512 281.269 44.4C281.141 44.272 281.093 44.128 281.093 43.936C281.093 43.728 281.141 43.568 281.253 43.456C281.349 43.344 281.653 43.232 282.133 43.12C282.629 43.024 283.205 42.976 284.133 42.976H284.693C285.301 42.976 285.653 43.008 286.101 43.072C286.549 43.152 286.901 43.232 287.125 43.312C287.365 43.408 287.541 43.52 287.685 43.664C287.829 43.808 287.925 43.92 287.957 44C287.989 44.08 288.021 44.192 288.053 44.304H292.021V44.16C292.021 43.792 291.957 43.456 291.829 43.136C291.717 42.832 291.493 42.512 291.173 42.192C290.853 41.872 290.437 41.6 289.925 41.376C289.413 41.152 288.741 40.976 287.877 40.832C287.029 40.688 286.037 40.624 284.933 40.624H283.797C282.725 40.624 281.781 40.688 280.981 40.832C280.165 40.96 279.525 41.136 279.045 41.344C278.565 41.552 278.181 41.808 277.893 42.112C277.589 42.432 277.397 42.736 277.301 43.04C277.205 43.344 277.157 43.68 277.157 44.032V44.176C277.157 46.256 279.141 47.36 283.109 47.456L284.005 47.472L285.205 47.504C286.117 47.52 286.805 47.584 287.285 47.68C287.765 47.792 288.085 47.92 288.213 48.048C288.341 48.192 288.405 48.384 288.405 48.624C288.405 48.8 288.373 48.944 288.293 49.072C288.213 49.2 288.069 49.312 287.829 49.44C287.605 49.568 287.237 49.648 286.741 49.712C286.229 49.776 285.909 49.824 285.141 49.824H284.261C281.925 49.824 281.061 49.232 280.981 48.048H276.997V48.208C276.997 48.56 277.029 48.896 277.109 49.2C277.189 49.504 277.381 49.856 277.669 50.24C277.957 50.624 278.357 50.96 278.837 51.232C279.333 51.504 280.037 51.728 280.949 51.92C281.845 52.112 282.917 52.208 284.133 52.208ZM327.344 52.192H328.016C329.344 52.192 330.528 52.08 331.552 51.856C332.576 51.616 333.376 51.328 333.936 51.008C334.512 50.672 334.976 50.288 335.344 49.856C335.696 49.408 335.936 49.024 336.064 48.672C336.176 48.32 336.224 47.968 336.224 47.632V47.472H332.16C332.16 47.488 332.16 47.504 332.144 47.52C331.696 48.816 330.224 49.472 327.712 49.472C326.864 49.472 326.128 49.376 325.504 49.184C324.88 48.992 324.416 48.736 324.096 48.416C323.776 48.096 323.536 47.776 323.391 47.44C323.248 47.104 323.168 46.752 323.168 46.384V46.208C323.168 45.824 323.232 45.472 323.376 45.152C323.504 44.832 323.728 44.528 324.032 44.224C324.352 43.936 324.816 43.712 325.44 43.552C326.048 43.376 326.8 43.296 327.68 43.296C328.416 43.296 329.056 43.36 329.632 43.472C330.192 43.584 330.624 43.712 330.912 43.856C331.2 44 331.44 44.176 331.648 44.384C331.856 44.592 331.984 44.752 332.032 44.848C332.08 44.944 332.112 45.04 332.144 45.168H336.208V44.992C336.208 44.688 336.16 44.368 336.064 44.032C335.951 43.696 335.728 43.312 335.36 42.88C335.008 42.448 334.544 42.08 333.984 41.744C333.424 41.424 332.624 41.152 331.6 40.912C330.56 40.688 329.376 40.576 328.016 40.576H327.344C325.968 40.576 324.752 40.704 323.728 40.976C322.688 41.232 321.888 41.552 321.328 41.936C320.768 42.32 320.32 42.784 319.968 43.312C319.632 43.84 319.408 44.32 319.312 44.752C319.215 45.184 319.168 45.648 319.168 46.128V46.576C319.168 46.88 319.184 47.184 319.232 47.504C319.28 47.808 319.392 48.16 319.552 48.544C319.712 48.928 319.904 49.28 320.144 49.616C320.384 49.952 320.72 50.272 321.152 50.608C321.584 50.928 322.064 51.2 322.624 51.44C323.168 51.664 323.856 51.84 324.672 51.984C325.488 52.128 326.368 52.192 327.344 52.192ZM354.369 40.624C353.297 40.624 352.337 40.688 351.457 40.832C350.593 40.96 349.857 41.136 349.265 41.36C348.689 41.584 348.177 41.856 347.745 42.176C347.297 42.496 346.961 42.816 346.705 43.136C346.465 43.456 346.273 43.808 346.129 44.192C345.969 44.576 345.873 44.928 345.841 45.216C345.793 45.52 345.777 45.824 345.777 46.16V46.608C345.777 46.928 345.793 47.248 345.841 47.552C345.873 47.84 345.969 48.192 346.129 48.576C346.273 48.96 346.465 49.312 346.705 49.648C346.961 49.968 347.297 50.288 347.745 50.624C348.193 50.944 348.705 51.216 349.281 51.456C349.857 51.68 350.593 51.856 351.457 52C352.337 52.144 353.297 52.208 354.369 52.208H354.881C355.953 52.208 356.913 52.144 357.777 52C358.657 51.856 359.377 51.68 359.953 51.456C360.529 51.216 361.041 50.944 361.489 50.624C361.937 50.288 362.273 49.968 362.513 49.648C362.753 49.312 362.945 48.96 363.105 48.576C363.249 48.192 363.361 47.84 363.393 47.552C363.441 47.248 363.457 46.928 363.457 46.608V46.16C363.457 45.824 363.441 45.52 363.393 45.216C363.361 44.912 363.249 44.576 363.105 44.192C362.945 43.808 362.753 43.456 362.497 43.136C362.257 42.816 361.921 42.496 361.473 42.176C361.041 41.856 360.529 41.584 359.953 41.36C359.361 41.136 358.641 40.96 357.777 40.832C356.913 40.688 355.953 40.624 354.881 40.624H354.369ZM359.457 46.48C359.457 46.832 359.393 47.184 359.249 47.504C359.121 47.824 358.881 48.144 358.545 48.448C358.209 48.768 357.697 49.024 357.009 49.2C356.417 49.376 355.697 49.456 354.881 49.488C354.753 49.488 354.561 49.488 354.481 49.488C353.601 49.472 352.833 49.376 352.193 49.2C351.505 49.008 351.009 48.752 350.673 48.432C350.353 48.112 350.113 47.792 349.985 47.472C349.841 47.152 349.777 46.8 349.777 46.448V46.272C349.777 44.368 351.329 43.392 354.417 43.328C354.513 43.328 354.801 43.328 354.945 43.344C355.569 43.36 356.129 43.408 356.625 43.52C357.217 43.648 357.697 43.808 358.049 44C358.401 44.176 358.689 44.416 358.897 44.688C359.121 44.96 359.265 45.216 359.345 45.472C359.425 45.712 359.457 45.984 359.457 46.272V46.48ZM373.491 52.016H377.155V44.256L381.971 52.016H384.019L388.819 44.256V52.016H392.595V40.816H387.363L383.123 47.792L378.915 40.816H373.491V52.016ZM406.908 40.832H403.1V52H406.908V40.832ZM417.413 40.816V52.016H421.173V44.592L429.461 52.016H433.237V40.816H429.461V47.856L421.669 40.816H417.413ZM451.709 52.192C454.397 52.192 456.349 51.552 457.581 50.256C457.597 50.992 457.613 52 457.613 52H460.365V45.744H451.773V47.856H456.557V47.888C456.557 47.952 456.509 48.048 456.429 48.176C456.333 48.288 456.157 48.432 455.933 48.576C455.693 48.736 455.405 48.88 455.069 49.008C454.733 49.136 454.285 49.248 453.709 49.344C453.149 49.424 452.525 49.472 451.853 49.472C450.301 49.472 449.149 49.184 448.381 48.592C447.629 48 447.245 47.296 447.245 46.48V46.304C447.245 44.304 448.797 43.296 451.885 43.296C454.365 43.296 455.805 43.824 456.221 44.88H460.269V44.864C460.269 44.512 460.205 44.176 460.077 43.84C459.965 43.504 459.725 43.136 459.357 42.72C459.005 42.32 458.541 41.968 457.981 41.68C457.421 41.376 456.637 41.136 455.645 40.928C454.653 40.736 453.501 40.64 452.205 40.64H451.501C450.157 40.64 448.973 40.752 447.965 41.008C446.941 41.264 446.141 41.568 445.565 41.952C444.989 42.32 444.509 42.768 444.141 43.28C443.773 43.792 443.533 44.288 443.421 44.736C443.309 45.2 443.261 45.664 443.261 46.16V46.576C443.261 47.072 443.325 47.552 443.453 48.032C443.597 48.496 443.853 48.992 444.221 49.52C444.589 50.032 445.069 50.48 445.645 50.864C446.237 51.248 447.021 51.568 447.997 51.824C448.989 52.064 450.109 52.192 451.373 52.192H451.709ZM494.555 52.208H495.675C496.859 52.208 497.899 52.144 498.779 51.984C499.659 51.84 500.347 51.664 500.859 51.424C501.371 51.2 501.771 50.912 502.075 50.576C502.379 50.224 502.587 49.888 502.683 49.568C502.779 49.248 502.827 48.88 502.827 48.464V48.256C502.827 47.12 502.331 46.304 501.307 45.776C500.299 45.248 498.667 44.96 496.379 44.928L495.227 44.912L494.331 44.896C493.547 44.88 492.939 44.832 492.507 44.736C492.075 44.624 491.803 44.512 491.691 44.4C491.563 44.272 491.515 44.128 491.515 43.936C491.515 43.728 491.563 43.568 491.675 43.456C491.771 43.344 492.075 43.232 492.555 43.12C493.051 43.024 493.627 42.976 494.555 42.976H495.115C495.723 42.976 496.075 43.008 496.523 43.072C496.971 43.152 497.323 43.232 497.547 43.312C497.787 43.408 497.963 43.52 498.107 43.664C498.251 43.808 498.347 43.92 498.379 44C498.411 44.08 498.443 44.192 498.475 44.304H502.443V44.16C502.443 43.792 502.379 43.456 502.251 43.136C502.139 42.832 501.915 42.512 501.595 42.192C501.275 41.872 500.859 41.6 500.347 41.376C499.835 41.152 499.163 40.976 498.299 40.832C497.451 40.688 496.459 40.624 495.355 40.624H494.219C493.147 40.624 492.203 40.688 491.403 40.832C490.587 40.96 489.947 41.136 489.467 41.344C488.987 41.552 488.603 41.808 488.315 42.112C488.011 42.432 487.819 42.736 487.723 43.04C487.627 43.344 487.579 43.68 487.579 44.032V44.176C487.579 46.256 489.563 47.36 493.531 47.456L494.427 47.472L495.627 47.504C496.539 47.52 497.227 47.584 497.707 47.68C498.187 47.792 498.507 47.92 498.635 48.048C498.763 48.192 498.827 48.384 498.827 48.624C498.827 48.8 498.795 48.944 498.715 49.072C498.635 49.2 498.491 49.312 498.251 49.44C498.027 49.568 497.659 49.648 497.163 49.712C496.651 49.776 496.331 49.824 495.563 49.824H494.683C492.347 49.824 491.483 49.232 491.403 48.048H487.419V48.208C487.419 48.56 487.451 48.896 487.531 49.2C487.611 49.504 487.803 49.856 488.091 50.24C488.379 50.624 488.779 50.96 489.259 51.232C489.755 51.504 490.459 51.728 491.371 51.92C492.267 52.112 493.339 52.208 494.555 52.208ZM521.025 40.624C519.953 40.624 518.993 40.688 518.113 40.832C517.249 40.96 516.513 41.136 515.921 41.36C515.345 41.584 514.833 41.856 514.401 42.176C513.953 42.496 513.617 42.816 513.361 43.136C513.121 43.456 512.929 43.808 512.785 44.192C512.625 44.576 512.529 44.928 512.497 45.216C512.449 45.52 512.433 45.824 512.433 46.16V46.608C512.433 46.928 512.449 47.248 512.497 47.552C512.529 47.84 512.625 48.192 512.785 48.576C512.929 48.96 513.121 49.312 513.361 49.648C513.617 49.968 513.953 50.288 514.401 50.624C514.849 50.944 515.361 51.216 515.937 51.456C516.513 51.68 517.249 51.856 518.113 52C518.993 52.144 519.953 52.208 521.025 52.208H521.537C522.609 52.208 523.569 52.144 524.433 52C525.313 51.856 526.033 51.68 526.609 51.456C527.185 51.216 527.697 50.944 528.145 50.624C528.593 50.288 528.929 49.968 529.169 49.648C529.409 49.312 529.601 48.96 529.761 48.576C529.905 48.192 530.017 47.84 530.049 47.552C530.097 47.248 530.113 46.928 530.113 46.608V46.16C530.113 45.824 530.097 45.52 530.049 45.216C530.017 44.912 529.905 44.576 529.761 44.192C529.601 43.808 529.409 43.456 529.153 43.136C528.913 42.816 528.577 42.496 528.129 42.176C527.697 41.856 527.185 41.584 526.609 41.36C526.017 41.136 525.297 40.96 524.433 40.832C523.569 40.688 522.609 40.624 521.537 40.624H521.025ZM526.113 46.48C526.113 46.832 526.049 47.184 525.905 47.504C525.777 47.824 525.537 48.144 525.201 48.448C524.865 48.768 524.353 49.024 523.665 49.2C523.073 49.376 522.353 49.456 521.537 49.488C521.409 49.488 521.217 49.488 521.137 49.488C520.257 49.472 519.489 49.376 518.849 49.2C518.161 49.008 517.665 48.752 517.329 48.432C517.009 48.112 516.769 47.792 516.641 47.472C516.497 47.152 516.433 46.8 516.433 46.448V46.272C516.433 44.368 517.985 43.392 521.073 43.328C521.169 43.328 521.457 43.328 521.601 43.344C522.225 43.36 522.785 43.408 523.281 43.52C523.873 43.648 524.353 43.808 524.705 44C525.057 44.176 525.345 44.416 525.553 44.688C525.777 44.96 525.921 45.216 526.001 45.472C526.081 45.712 526.113 45.984 526.113 46.272V46.48ZM548.26 40.624C547.188 40.624 546.228 40.688 545.348 40.832C544.484 40.96 543.748 41.136 543.156 41.36C542.58 41.584 542.068 41.856 541.636 42.176C541.188 42.496 540.852 42.816 540.596 43.136C540.356 43.456 540.164 43.808 540.02 44.192C539.86 44.576 539.764 44.928 539.732 45.216C539.684 45.52 539.668 45.824 539.668 46.16V46.608C539.668 46.928 539.684 47.248 539.732 47.552C539.764 47.84 539.86 48.192 540.02 48.576C540.164 48.96 540.356 49.312 540.596 49.648C540.852 49.968 541.188 50.288 541.636 50.624C542.084 50.944 542.596 51.216 543.172 51.456C543.748 51.68 544.484 51.856 545.348 52C546.228 52.144 547.188 52.208 548.26 52.208H548.772C549.844 52.208 550.804 52.144 551.668 52C552.548 51.856 553.268 51.68 553.844 51.456C554.42 51.216 554.932 50.944 555.38 50.624C555.828 50.288 556.164 49.968 556.404 49.648C556.644 49.312 556.836 48.96 556.996 48.576C557.14 48.192 557.252 47.84 557.284 47.552C557.332 47.248 557.348 46.928 557.348 46.608V46.16C557.348 45.824 557.332 45.52 557.284 45.216C557.252 44.912 557.14 44.576 556.996 44.192C556.836 43.808 556.644 43.456 556.388 43.136C556.148 42.816 555.812 42.496 555.364 42.176C554.932 41.856 554.42 41.584 553.844 41.36C553.252 41.136 552.532 40.96 551.668 40.832C550.804 40.688 549.844 40.624 548.772 40.624H548.26ZM553.348 46.48C553.348 46.832 553.284 47.184 553.14 47.504C553.012 47.824 552.772 48.144 552.436 48.448C552.1 48.768 551.588 49.024 550.9 49.2C550.308 49.376 549.588 49.456 548.772 49.488C548.644 49.488 548.452 49.488 548.372 49.488C547.492 49.472 546.724 49.376 546.084 49.2C545.396 49.008 544.9 48.752 544.564 48.432C544.244 48.112 544.004 47.792 543.876 47.472C543.732 47.152 543.668 46.8 543.668 46.448V46.272C543.668 44.368 545.22 43.392 548.308 43.328C548.404 43.328 548.692 43.328 548.836 43.344C549.46 43.36 550.02 43.408 550.516 43.52C551.108 43.648 551.588 43.808 551.94 44C552.292 44.176 552.58 44.416 552.788 44.688C553.012 44.96 553.156 45.216 553.236 45.472C553.316 45.712 553.348 45.984 553.348 46.272V46.48ZM567.382 40.816V52.016H571.142V44.592L579.43 52.016H583.206V40.816H579.43V47.856L571.638 40.816H567.382Z" fill="white" />
              <path d="M300.816 137.032H308.528V119.944H319.056V114.632H290.32V119.944H300.816V137.032ZM404.654 123.368C404.59 122.792 404.398 122.12 404.142 121.384C403.854 120.648 403.502 119.976 403.054 119.336C402.606 118.696 401.998 118.088 401.23 117.448C400.43 116.84 399.502 116.296 398.478 115.88C397.422 115.432 396.11 115.112 394.574 114.824C393.006 114.568 391.278 114.44 389.39 114.44H335.79C333.87 114.44 332.142 114.568 330.574 114.824C329.006 115.112 327.694 115.432 326.638 115.88C325.582 116.296 324.654 116.84 323.886 117.448C323.086 118.088 322.478 118.696 322.03 119.336C321.614 119.976 321.262 120.648 320.974 121.416C320.718 122.152 320.558 122.824 320.462 123.4C320.398 123.976 320.366 124.584 320.366 125.224V126.12C320.366 126.728 320.398 127.336 320.462 127.912C320.558 128.52 320.718 129.192 320.974 129.928C321.262 130.696 321.614 131.368 322.03 132.008C322.478 132.648 323.118 133.288 323.886 133.928C324.686 134.568 325.614 135.08 326.638 135.528C327.694 135.976 329.006 136.328 330.574 136.616C332.142 136.872 333.87 137 335.79 137H389.39C391.278 137 393.006 136.872 394.574 136.616C396.142 136.328 397.454 135.976 398.478 135.528C399.534 135.08 400.43 134.568 401.23 133.928C402.03 133.288 402.638 132.648 403.086 132.008C403.502 131.368 403.854 130.696 404.142 129.928C404.398 129.192 404.59 128.52 404.654 127.912C404.75 127.336 404.782 126.728 404.782 126.12V125.224C404.782 124.584 404.75 123.976 404.654 123.368ZM397.582 125.832C397.582 126.536 397.486 127.208 397.23 127.848C396.974 128.456 396.558 129.096 395.95 129.704C395.342 130.312 394.414 130.792 393.198 131.176C392.078 131.496 390.702 131.688 389.134 131.72C389.006 131.72 336.526 131.72 336.398 131.72C334.638 131.72 333.134 131.528 331.886 131.144C330.67 130.792 329.742 130.28 329.166 129.672C328.558 129.032 328.142 128.392 327.918 127.784C327.662 127.144 327.534 126.504 327.534 125.8V125.448C327.534 121.608 330.478 119.72 336.398 119.72C336.526 119.72 389.006 119.72 389.134 119.72C390.414 119.752 391.534 119.848 392.494 120.072C393.582 120.328 394.446 120.648 395.054 121C395.694 121.384 396.206 121.832 396.59 122.344C396.974 122.888 397.262 123.4 397.39 123.88C397.518 124.36 397.582 124.872 397.582 125.448V125.832ZM431.349 114.472V124.84C431.349 125.64 431.221 126.376 430.997 127.048C430.773 127.752 430.389 128.424 429.813 129.096C429.269 129.768 428.437 130.28 427.349 130.664C426.229 131.048 424.917 131.272 423.381 131.272C421.813 131.272 420.469 131.048 419.349 130.664C418.197 130.28 417.365 129.768 416.821 129.096C416.277 128.424 415.893 127.752 415.669 127.048C415.445 126.376 415.317 125.64 415.317 124.84V114.472H407.701V125.256C407.701 125.928 407.733 126.568 407.829 127.24C407.925 127.88 408.117 128.616 408.405 129.416C408.725 130.216 409.077 130.952 409.557 131.656C410.005 132.328 410.613 133.032 411.413 133.704C412.181 134.376 413.109 134.952 414.133 135.432C415.157 135.912 416.405 136.296 417.909 136.584C419.381 136.872 421.045 137 422.837 137H424.021C426.389 137 428.501 136.744 430.357 136.168C432.181 135.624 433.621 134.92 434.677 134.088C435.733 133.256 436.597 132.296 437.269 131.176C437.941 130.088 438.389 129.032 438.613 128.104C438.837 127.144 438.965 126.184 438.965 125.256V114.472H431.349ZM469.163 127.688C468.395 126.824 467.371 126.248 466.123 125.896C468.843 125 470.219 123.4 470.219 121.064V120.712C470.219 116.904 467.019 114.984 460.619 114.984H442.795V137H449.707V129.192H458.731C460.427 129.192 461.611 129.512 462.315 130.12C463.019 130.728 463.371 131.72 463.371 133.064V137H470.315V130.952C470.315 129.608 469.931 128.52 469.163 127.688ZM462.987 122.152C462.987 122.792 462.763 123.336 462.315 123.72C461.867 124.104 461.163 124.328 460.203 124.328H449.707V119.976H460.203C461.163 119.976 461.867 120.2 462.315 120.584C462.763 120.968 462.987 121.48 462.987 122.12V122.152Z" fill="white" />
              <path d="M195.256 125.384C195.2 125.184 195.12 124.976 195 124.768C194.888 124.56 194.72 124.376 194.496 124.208C194.272 124.048 194.008 123.896 193.696 123.76C193.384 123.624 192.992 123.52 192.528 123.456C192.064 123.384 191.544 123.344 190.96 123.344H174.48V129H190.976C191.664 129 192.28 128.944 192.816 128.832C193.344 128.712 193.768 128.568 194.08 128.392C194.392 128.208 194.64 127.992 194.84 127.744C195.04 127.488 195.168 127.24 195.232 127.008C195.304 126.776 195.336 126.52 195.336 126.248V126.024C195.336 125.792 195.312 125.584 195.256 125.384ZM193.304 126.184C193.304 127.16 192.472 127.64 190.816 127.64H176.416V124.688H190.816C192.472 124.688 193.304 125.168 193.304 126.136V126.184ZM221.131 125.384C221.075 125.184 220.995 124.976 220.875 124.768C220.763 124.56 220.595 124.376 220.371 124.208C220.147 124.048 219.883 123.896 219.571 123.76C219.259 123.624 218.867 123.52 218.403 123.456C217.939 123.384 217.419 123.344 216.835 123.344H200.355V129H216.851C217.539 129 218.155 128.944 218.691 128.832C219.219 128.712 219.643 128.568 219.955 128.392C220.267 128.208 220.515 127.992 220.715 127.744C220.915 127.488 221.043 127.24 221.107 127.008C221.179 126.776 221.211 126.52 221.211 126.248V126.024C221.211 125.792 221.187 125.584 221.131 125.384ZM219.179 126.184C219.179 127.16 218.347 127.64 216.691 127.64H202.291V124.688H216.691C218.347 124.688 219.179 125.168 219.179 126.136V126.184ZM247.006 125.384C246.95 125.184 246.87 124.976 246.75 124.768C246.638 124.56 246.47 124.376 246.246 124.208C246.022 124.048 245.758 123.896 245.446 123.76C245.134 123.624 244.742 123.52 244.278 123.456C243.814 123.384 243.294 123.344 242.71 123.344H226.23V129H242.726C243.414 129 244.03 128.944 244.566 128.832C245.094 128.712 245.518 128.568 245.83 128.392C246.142 128.208 246.39 127.992 246.59 127.744C246.79 127.488 246.918 127.24 246.982 127.008C247.054 126.776 247.086 126.52 247.086 126.248V126.024C247.086 125.792 247.062 125.584 247.006 125.384ZM245.054 126.184C245.054 127.16 244.222 127.64 242.566 127.64H228.166V124.688H242.566C244.222 124.688 245.054 125.168 245.054 126.136V126.184ZM272.881 125.384C272.825 125.184 272.745 124.976 272.625 124.768C272.513 124.56 272.345 124.376 272.121 124.208C271.897 124.048 271.633 123.896 271.321 123.76C271.009 123.624 270.617 123.52 270.153 123.456C269.689 123.384 269.169 123.344 268.585 123.344H252.105V129H268.601C269.289 129 269.905 128.944 270.441 128.832C270.969 128.712 271.393 128.568 271.705 128.392C272.017 128.208 272.265 127.992 272.465 127.744C272.665 127.488 272.793 127.24 272.857 127.008C272.929 126.776 272.961 126.52 272.961 126.248V126.024C272.961 125.792 272.937 125.584 272.881 125.384ZM270.929 126.184C270.929 127.16 270.097 127.64 268.441 127.64H254.041V124.688H268.441C270.097 124.688 270.929 125.168 270.929 126.136V126.184Z" fill="#424242" />
              <path d="M566.744 125.384C566.8 125.184 566.88 124.976 567 124.768C567.112 124.56 567.28 124.376 567.504 124.208C567.728 124.048 567.992 123.896 568.304 123.76C568.616 123.624 569.008 123.52 569.472 123.456C569.936 123.384 570.456 123.344 571.04 123.344H587.52V129H571.024C570.336 129 569.72 128.944 569.184 128.832C568.656 128.712 568.232 128.568 567.92 128.392C567.608 128.208 567.36 127.992 567.16 127.744C566.96 127.488 566.832 127.24 566.768 127.008C566.696 126.776 566.664 126.52 566.664 126.248V126.024C566.664 125.792 566.688 125.584 566.744 125.384ZM568.696 126.184C568.696 127.16 569.528 127.64 571.184 127.64H585.584V124.688H571.184C569.528 124.688 568.696 125.168 568.696 126.136V126.184ZM540.869 125.384C540.925 125.184 541.005 124.976 541.125 124.768C541.237 124.56 541.405 124.376 541.629 124.208C541.853 124.048 542.117 123.896 542.429 123.76C542.741 123.624 543.133 123.52 543.597 123.456C544.061 123.384 544.581 123.344 545.165 123.344H561.645V129H545.149C544.461 129 543.845 128.944 543.309 128.832C542.781 128.712 542.357 128.568 542.045 128.392C541.733 128.208 541.485 127.992 541.285 127.744C541.085 127.488 540.957 127.24 540.893 127.008C540.821 126.776 540.789 126.52 540.789 126.248V126.024C540.789 125.792 540.813 125.584 540.869 125.384ZM542.821 126.184C542.821 127.16 543.653 127.64 545.309 127.64H559.709V124.688H545.309C543.653 124.688 542.821 125.168 542.821 126.136V126.184ZM514.994 125.384C515.05 125.184 515.13 124.976 515.25 124.768C515.362 124.56 515.53 124.376 515.754 124.208C515.978 124.048 516.242 123.896 516.554 123.76C516.866 123.624 517.258 123.52 517.722 123.456C518.186 123.384 518.706 123.344 519.29 123.344H535.77V129H519.274C518.586 129 517.97 128.944 517.434 128.832C516.906 128.712 516.482 128.568 516.17 128.392C515.858 128.208 515.61 127.992 515.41 127.744C515.21 127.488 515.082 127.24 515.018 127.008C514.946 126.776 514.914 126.52 514.914 126.248V126.024C514.914 125.792 514.938 125.584 514.994 125.384ZM516.946 126.184C516.946 127.16 517.778 127.64 519.434 127.64H533.834V124.688H519.434C517.778 124.688 516.946 125.168 516.946 126.136V126.184ZM489.119 125.384C489.175 125.184 489.255 124.976 489.375 124.768C489.487 124.56 489.655 124.376 489.879 124.208C490.103 124.048 490.367 123.896 490.679 123.76C490.991 123.624 491.383 123.52 491.847 123.456C492.311 123.384 492.831 123.344 493.415 123.344H509.895V129H493.399C492.711 129 492.095 128.944 491.559 128.832C491.031 128.712 490.607 128.568 490.295 128.392C489.983 128.208 489.735 127.992 489.535 127.744C489.335 127.488 489.207 127.24 489.143 127.008C489.071 126.776 489.039 126.52 489.039 126.248V126.024C489.039 125.792 489.063 125.584 489.119 125.384ZM491.071 126.184C491.071 127.16 491.903 127.64 493.559 127.64H507.959V124.688H493.559C491.903 124.688 491.071 125.168 491.071 126.136V126.184Z" fill="#424242" />
            </svg>